<?xml version="1.0" encoding="UTF-8" standalone="no"?>
<!DOCTYPE svg PUBLIC "-//W3C//DTD SVG 1.1//EN" "http://www.w3.org/Graphics/SVG/1.1/DTD/svg11.dtd">
<svg width="100%" height="100%" viewBox="0 0 206 206" version="1.1" xmlns="http://www.w3.org/2000/svg" xmlns:xlink="http://www.w3.org/1999/xlink" xml:space="preserve" xmlns:serif="http://www.serif.com/" style="fill-rule:evenodd;clip-rule:evenodd;stroke-linejoin:round;stroke-miterlimit:1.41421;">
    <g transform="matrix(1,0,0,1,-1152.2,-401.837)">
        <g transform="matrix(1.00392,0,0,1.00975,-4.52019,-3.91664)">
            <rect x="1152.2" y="401.837" width="205.195" height="205.195" style="fill:rgb(0,147,255);"/>
        </g>
        <path d="M1257.03,578.788L1258.32,578.788C1259.19,578.788 1259.82,578.627 1260.22,578.304C1260.61,577.981 1260.8,577.502 1260.8,576.866C1260.8,576.22 1260.59,575.757 1260.17,575.476C1259.75,575.194 1259.11,575.054 1258.26,575.054L1257.03,575.054L1257.03,578.788ZM1257.03,580.335L1257.03,584.897L1255.16,584.897L1255.16,573.476L1258.39,573.476C1259.86,573.476 1260.95,573.752 1261.66,574.304C1262.37,574.856 1262.72,575.689 1262.72,576.804C1262.72,578.226 1261.98,579.239 1260.5,579.843L1263.73,584.897L1261.61,584.897L1258.87,580.335L1257.03,580.335ZM1268.97,585.054C1267.63,585.054 1266.58,584.663 1265.82,583.882C1265.06,583.095 1264.68,582.015 1264.68,580.64C1264.68,579.228 1265.04,578.119 1265.74,577.312C1266.44,576.504 1267.41,576.101 1268.64,576.101C1269.78,576.101 1270.68,576.447 1271.34,577.14C1272,577.832 1272.33,578.785 1272.33,579.999L1272.33,580.991L1266.57,580.991C1266.6,581.83 1266.83,582.476 1267.25,582.929C1267.68,583.377 1268.28,583.601 1269.06,583.601C1269.57,583.601 1270.04,583.554 1270.48,583.46C1270.92,583.361 1271.4,583.2 1271.9,582.976L1271.9,584.468C1271.45,584.681 1271,584.832 1270.54,584.921C1270.08,585.009 1269.56,585.054 1268.97,585.054ZM1268.64,577.491C1268.05,577.491 1267.58,577.676 1267.23,578.046C1266.88,578.416 1266.67,578.955 1266.61,579.663L1270.53,579.663C1270.52,578.95 1270.35,578.41 1270.01,578.046C1269.68,577.676 1269.22,577.491 1268.64,577.491ZM1276.19,580.335L1277.23,579.038L1279.84,576.257L1281.96,576.257L1278.48,579.968L1282.18,584.897L1280.02,584.897L1277.25,581.108L1276.24,581.937L1276.24,584.897L1274.42,584.897L1274.42,572.741L1276.24,572.741L1276.24,578.671L1276.14,580.335L1276.19,580.335ZM1287.96,576.101C1288.33,576.101 1288.63,576.127 1288.87,576.179L1288.69,577.89C1288.43,577.827 1288.16,577.796 1287.88,577.796C1287.14,577.796 1286.55,578.035 1286.09,578.515C1285.64,578.994 1285.41,579.616 1285.41,580.382L1285.41,584.897L1283.57,584.897L1283.57,576.257L1285.01,576.257L1285.25,577.78L1285.35,577.78C1285.63,577.265 1286.01,576.856 1286.47,576.554C1286.93,576.252 1287.43,576.101 1287.96,576.101ZM1296.57,584.897L1296.32,583.765L1296.22,583.765C1295.97,584.166 1295.6,584.481 1295.13,584.71C1294.66,584.939 1294.12,585.054 1293.52,585.054C1292.47,585.054 1291.69,584.793 1291.18,584.272C1290.66,583.752 1290.4,582.963 1290.4,581.905L1290.4,576.257L1292.25,576.257L1292.25,581.585C1292.25,582.246 1292.39,582.744 1292.66,583.077C1292.93,583.405 1293.36,583.569 1293.93,583.569C1294.7,583.569 1295.27,583.34 1295.63,582.882C1295.99,582.418 1296.18,581.645 1296.18,580.562L1296.18,576.257L1298.02,576.257L1298.02,584.897L1296.57,584.897ZM1303.86,583.569C1304.3,583.569 1304.75,583.499 1305.2,583.358L1305.2,584.741C1305,584.83 1304.73,584.903 1304.41,584.96C1304.09,585.022 1303.76,585.054 1303.42,585.054C1301.68,585.054 1300.81,584.137 1300.81,582.304L1300.81,577.647L1299.63,577.647L1299.63,576.835L1300.89,576.163L1301.52,574.335L1302.65,574.335L1302.65,576.257L1305.11,576.257L1305.11,577.647L1302.65,577.647L1302.65,582.272C1302.65,582.715 1302.76,583.043 1302.98,583.257C1303.2,583.465 1303.5,583.569 1303.86,583.569ZM1312.34,584.897L1311.97,583.694L1311.91,583.694C1311.49,584.22 1311.07,584.58 1310.65,584.772C1310.23,584.96 1309.69,585.054 1309.03,585.054C1308.18,585.054 1307.51,584.825 1307.04,584.366C1306.56,583.908 1306.32,583.259 1306.32,582.421C1306.32,581.53 1306.66,580.858 1307.32,580.405C1307.98,579.952 1308.99,579.705 1310.34,579.663L1311.83,579.616L1311.83,579.155C1311.83,578.603 1311.7,578.192 1311.44,577.921C1311.19,577.645 1310.79,577.507 1310.25,577.507C1309.8,577.507 1309.38,577.572 1308.97,577.702C1308.57,577.832 1308.18,577.986 1307.8,578.163L1307.21,576.851C1307.68,576.606 1308.19,576.421 1308.75,576.296C1309.3,576.166 1309.83,576.101 1310.32,576.101C1311.42,576.101 1312.25,576.34 1312.81,576.819C1313.37,577.299 1313.65,578.051 1313.65,579.077L1313.65,584.897L1312.34,584.897ZM1309.61,583.647C1310.27,583.647 1310.81,583.463 1311.21,583.093C1311.61,582.718 1311.82,582.194 1311.82,581.522L1311.82,580.772L1310.71,580.819C1309.84,580.851 1309.21,580.996 1308.82,581.257C1308.43,581.512 1308.23,581.905 1308.23,582.437C1308.23,582.822 1308.35,583.121 1308.57,583.335C1308.8,583.543 1309.15,583.647 1309.61,583.647ZM1319.7,585.054C1318.39,585.054 1317.4,584.674 1316.72,583.913C1316.04,583.147 1315.7,582.051 1315.7,580.624C1315.7,579.171 1316.05,578.054 1316.76,577.272C1317.48,576.491 1318.5,576.101 1319.85,576.101C1320.76,576.101 1321.58,576.27 1322.31,576.608L1321.75,578.085C1320.98,577.783 1320.34,577.632 1319.83,577.632C1318.34,577.632 1317.59,578.624 1317.59,580.608C1317.59,581.577 1317.77,582.306 1318.14,582.796C1318.52,583.28 1319.07,583.522 1319.79,583.522C1320.6,583.522 1321.38,583.319 1322.11,582.913L1322.11,584.515C1321.78,584.707 1321.43,584.845 1321.05,584.929C1320.68,585.012 1320.23,585.054 1319.7,585.054ZM1323.25,588.741C1322.7,588.741 1322.24,588.676 1321.88,588.546L1321.88,587.093C1322.23,587.187 1322.6,587.233 1322.97,587.233C1323.75,587.233 1324.14,586.791 1324.14,585.905L1324.14,576.257L1325.97,576.257L1325.97,586.03C1325.97,586.921 1325.74,587.595 1325.27,588.054C1324.81,588.512 1324.13,588.741 1323.25,588.741ZM1324.03,573.968C1324.03,573.64 1324.12,573.387 1324.29,573.21C1324.48,573.033 1324.73,572.944 1325.07,572.944C1325.39,572.944 1325.64,573.033 1325.82,573.21C1326,573.387 1326.09,573.64 1326.09,573.968C1326.09,574.28 1326,574.528 1325.82,574.71C1325.64,574.887 1325.39,574.976 1325.07,574.976C1324.73,574.976 1324.48,574.887 1324.29,574.71C1324.12,574.528 1324.03,574.28 1324.03,573.968ZM1334.01,584.897L1333.64,583.694L1333.58,583.694C1333.17,584.22 1332.75,584.58 1332.32,584.772C1331.9,584.96 1331.36,585.054 1330.7,585.054C1329.85,585.054 1329.19,584.825 1328.71,584.366C1328.23,583.908 1328,583.259 1328,582.421C1328,581.53 1328.33,580.858 1328.99,580.405C1329.65,579.952 1330.66,579.705 1332.01,579.663L1333.5,579.616L1333.5,579.155C1333.5,578.603 1333.37,578.192 1333.11,577.921C1332.86,577.645 1332.46,577.507 1331.92,577.507C1331.48,577.507 1331.05,577.572 1330.64,577.702C1330.24,577.832 1329.85,577.986 1329.47,578.163L1328.88,576.851C1329.35,576.606 1329.86,576.421 1330.42,576.296C1330.98,576.166 1331.5,576.101 1332,576.101C1333.1,576.101 1333.92,576.34 1334.48,576.819C1335.04,577.299 1335.32,578.051 1335.32,579.077L1335.32,584.897L1334.01,584.897ZM1331.28,583.647C1331.94,583.647 1332.48,583.463 1332.88,583.093C1333.29,582.718 1333.49,582.194 1333.49,581.522L1333.49,580.772L1332.38,580.819C1331.51,580.851 1330.88,580.996 1330.49,581.257C1330.1,581.512 1329.9,581.905 1329.9,582.437C1329.9,582.822 1330.02,583.121 1330.25,583.335C1330.48,583.543 1330.82,583.647 1331.28,583.647Z" style="fill:white;fill-rule:nonzero;"/>
        <path d="M1289.85,505.239C1289.5,504.541 1289.67,504.018 1290.37,503.669C1290.72,503.146 1291.15,502.883 1291.68,502.883L1293.51,502.623C1295.08,502.623 1295.86,503.321 1295.86,504.716C1295.86,505.064 1295.69,505.589 1295.34,506.284C1295.17,506.809 1294.64,507.069 1293.77,507.069L1292.2,507.069L1291.94,507.069C1290.54,507.069 1289.85,506.459 1289.85,505.239ZM1297.96,550.763C1297.26,550.936 1296.39,551.023 1295.34,551.023C1289.58,551.023 1284.35,548.844 1279.64,544.484C1275.46,540.297 1273.36,535.151 1273.36,529.047C1273.36,522.943 1275.46,517.71 1279.64,513.349C1281.04,512.303 1282.26,511.43 1283.3,510.733L1283.3,517.535C1283.3,518.93 1284,519.628 1285.4,519.628C1286.97,519.628 1287.75,518.93 1287.75,517.535L1287.75,506.547C1287.75,504.976 1286.97,504.193 1285.4,504.193L1274.41,504.193C1273.01,504.193 1272.32,504.976 1272.32,506.547C1272.32,507.942 1273.01,508.64 1274.41,508.64L1278.33,508.64L1276.76,510.21C1271.53,515.442 1268.92,521.721 1268.92,529.047C1268.92,536.199 1271.53,542.391 1276.76,547.622C1282,552.856 1288.19,555.471 1295.34,555.471C1296.74,555.471 1297.78,555.384 1298.48,555.209C1299,555.209 1299.44,554.949 1299.79,554.426C1300.14,554.251 1300.31,553.726 1300.31,552.856C1299.96,551.46 1299.18,550.763 1297.96,550.763ZM1318.36,548.407L1313.39,548.407C1313.74,548.059 1313.91,547.797 1313.91,547.622C1319.15,542.738 1321.76,536.547 1321.76,529.047C1321.76,521.548 1319.24,515.269 1314.18,510.21C1310.17,506.547 1305.63,504.193 1300.57,503.146L1300.31,503.146C1299.26,503.146 1298.48,503.669 1297.96,504.716C1297.96,506.284 1298.57,507.157 1299.79,507.332C1304.15,508.379 1307.81,510.385 1310.78,513.349C1315.14,517.71 1317.32,522.943 1317.32,529.047C1317.32,535.151 1315.14,540.297 1310.78,544.484L1310.25,545.006C1310.08,545.354 1309.9,545.617 1309.73,545.791L1309.73,539.512C1309.73,538.117 1308.94,537.419 1307.38,537.419C1305.98,537.419 1305.28,538.117 1305.28,539.512L1305.28,550.5C1305.28,552.071 1305.98,552.856 1307.38,552.856L1318.36,552.856C1319.93,552.856 1320.72,552.071 1320.72,550.5C1320.72,549.105 1319.93,548.407 1318.36,548.407ZM1264.47,530.093C1264.47,528.872 1264.55,528 1264.73,527.477L1194.35,527.477C1193.48,527.477 1192.96,527.129 1192.78,526.431C1192.43,526.082 1192.26,525.471 1192.26,524.599L1197.23,507.855C1200.02,498.437 1206.12,492.593 1215.54,490.325L1216.59,489.802L1217.11,489.802C1217.46,489.628 1217.81,489.715 1218.16,490.065C1225.14,498.087 1232.9,502.098 1241.44,502.098C1250.34,502.098 1258.1,498.087 1264.73,490.065C1265.08,489.715 1265.51,489.54 1266.04,489.54C1266.04,489.715 1266.13,489.802 1266.3,489.802L1267.87,490.325C1273.62,491.721 1278.25,494.861 1281.73,499.745L1286.97,499.745C1282.96,492.768 1276.94,488.145 1268.92,485.879L1267.35,485.354L1266.82,485.354C1264.9,484.831 1263.16,485.354 1261.59,486.924C1255.49,494.076 1248.77,497.652 1241.44,497.652C1233.94,497.652 1227.32,494.163 1221.56,487.187C1219.99,485.616 1218.25,485.006 1216.33,485.354C1215.98,485.354 1215.72,485.441 1215.54,485.616L1214.23,486.139C1209.18,487.362 1204.73,489.802 1200.89,493.466C1197.06,497.129 1194.44,501.488 1193.04,506.547L1188.07,523.553C1187.55,525.819 1187.9,527.739 1189.12,529.31C1190.34,531.053 1192.08,531.925 1194.35,531.925L1264.47,531.925L1264.47,530.093ZM1222.08,476.199C1227.67,483.873 1234.12,487.709 1241.44,487.709C1248.77,487.709 1255.22,483.873 1260.8,476.199C1266.39,468.349 1269.18,459.367 1269.18,449.25C1269.18,441.575 1266.47,435.036 1261.07,429.627C1255.66,424.221 1249.12,421.518 1241.44,421.518C1233.77,421.518 1227.23,424.221 1221.82,429.627C1216.59,435.036 1213.97,441.575 1213.97,449.25C1213.97,459.542 1216.68,468.524 1222.08,476.199ZM1241.44,425.966C1246.85,425.966 1251.56,427.622 1255.57,430.935C1259.76,434.251 1262.55,438.437 1263.94,443.493C1258.54,444.716 1254.26,442.883 1251.12,438C1251.12,437.477 1250.78,437.041 1250.08,436.692C1248.68,435.994 1247.72,436.344 1247.2,437.739C1245.46,441.227 1241.97,443.668 1236.74,445.064C1231.5,446.284 1225.48,446.199 1218.68,444.803C1219.73,439.395 1222.34,434.948 1226.53,431.46C1230.89,427.797 1235.86,425.966 1241.44,425.966ZM1228.62,450.297C1238.04,450.297 1244.85,447.767 1249.03,442.71C1252.34,446.372 1256.53,448.204 1261.59,448.204C1262.46,448.204 1263.42,448.029 1264.47,447.68C1264.47,447.854 1264.47,448.117 1264.47,448.465C1264.64,448.814 1264.73,449.075 1264.73,449.25C1264.73,458.32 1262.37,466.256 1257.67,473.058C1253.13,479.86 1247.72,483.263 1241.44,483.263C1235.34,483.263 1229.93,479.86 1225.22,473.058C1220.69,466.256 1218.42,458.32 1218.42,449.25C1223.3,449.947 1226.71,450.297 1228.62,450.297Z" style="fill:white;fill-rule:nonzero;"/>
    </g>
</svg>
