<?xml version="1.0" encoding="UTF-8" standalone="no"?>
<!DOCTYPE svg PUBLIC "-//W3C//DTD SVG 1.1//EN" "http://www.w3.org/Graphics/SVG/1.1/DTD/svg11.dtd">
<svg width="100%" height="100%" viewBox="0 0 206 206" version="1.1" xmlns="http://www.w3.org/2000/svg" xmlns:xlink="http://www.w3.org/1999/xlink" xml:space="preserve" xmlns:serif="http://www.serif.com/" style="fill-rule:evenodd;clip-rule:evenodd;stroke-linejoin:round;stroke-miterlimit:1.41421;">
    <g transform="matrix(1,0,0,1,-660.928,-640.742)">
        <g transform="matrix(1.00975,0,0,1.00975,-6.44195,-6.2452)">
            <rect x="660.928" y="640.742" width="205.195" height="205.195" style="fill:rgb(0,63,117);"/>
        </g>
        <path d="M816.449,676.468L771.529,676.468L771.529,671.304C771.529,669.068 770.758,667.173 769.198,665.626C767.656,664.076 765.765,663.302 763.525,663.302C761.286,663.302 759.395,664.076 757.853,665.626C756.292,667.173 755.522,669.068 755.522,671.304L755.522,676.468L710.605,676.468C706.99,676.468 703.893,677.758 701.31,680.339C698.729,682.922 697.439,686.019 697.439,689.634L697.439,695.054C697.439,698.669 699.161,701.077 702.601,702.284L702.601,753.139C702.601,756.752 704.15,759.85 707.249,762.431C710.346,765.012 713.702,766.303 717.316,766.303L739.002,766.303L729.966,782.052C728.933,783.772 728.676,785.578 729.192,787.473C729.707,789.365 730.912,790.828 732.806,791.86C733.665,792.548 734.871,792.894 736.419,792.894C737.28,792.894 737.882,792.807 738.227,792.635C740.292,791.946 741.755,790.828 742.614,789.279L755.779,766.303L771.272,766.303L784.177,789.279C785.389,791.001 786.839,792.119 788.565,792.635C789.079,792.807 789.685,792.894 790.364,792.894C791.759,792.894 793.044,792.548 794.237,791.86C795.963,790.656 797.083,789.193 797.597,787.473C798.111,785.407 797.854,783.599 796.826,782.052L788.051,766.303L811.034,766.303C814.632,766.303 817.734,765.012 820.323,762.431C823.076,759.85 824.453,756.752 824.453,753.139L824.453,702.541C827.886,701.164 829.612,698.669 829.612,695.054L829.612,689.634C829.612,686.019 828.327,682.922 825.738,680.339C823.15,677.758 820.066,676.468 816.449,676.468ZM760.937,671.304C760.937,669.411 761.8,668.466 763.525,668.466C765.251,668.466 766.114,669.411 766.114,671.304L766.114,676.468L760.937,676.468L760.937,671.304ZM738.227,786.698C737.882,787.214 737.539,787.473 737.194,787.473C736.678,787.816 736.162,787.73 735.644,787.214C734.44,786.698 734.183,785.751 734.871,784.374L745.197,766.303L749.849,766.303L738.227,786.698ZM792.438,784.633C792.603,784.976 792.695,785.494 792.695,786.182C792.53,786.698 792.181,787.041 791.667,787.214C791.483,787.386 790.97,787.473 790.107,787.473C789.941,787.473 789.593,787.214 789.079,786.698L777.202,766.303L781.846,766.303L792.438,784.633ZM824.453,695.054C824.453,696.431 823.682,697.292 822.122,697.635L821.608,697.635C819.882,697.635 819.02,698.583 819.02,700.475L819.02,753.396C819.02,755.461 818.248,757.269 816.706,758.817C815.146,760.366 813.255,761.141 811.034,761.141L717.316,761.141C715.078,761.141 712.929,760.366 710.862,758.817C708.969,757.269 708.024,755.461 708.024,753.396L708.024,702.799L791.41,702.799C793.117,702.799 793.98,701.938 793.98,700.217C793.98,698.496 793.117,697.635 791.41,697.635L705.441,697.635C703.548,697.635 702.601,696.776 702.601,695.054L702.601,689.634C702.601,687.396 703.376,685.589 704.925,684.213C706.474,682.663 708.367,681.889 710.605,681.889L816.449,681.889C818.689,681.889 820.58,682.663 822.122,684.213C823.682,685.589 824.453,687.396 824.453,689.634L824.453,695.054ZM807.161,697.635L803.287,697.635C801.378,697.635 800.442,698.496 800.442,700.217C800.442,701.938 801.378,702.799 803.287,702.799L807.161,702.799C808.868,702.799 809.731,701.938 809.731,700.217C809.731,698.496 808.868,697.635 807.161,697.635Z" style="fill:white;fill-rule:nonzero;"/>
        <path d="M780.409,820.701C780.409,821.717 780.042,822.514 779.307,823.092C778.573,823.67 777.56,823.959 776.268,823.959C774.976,823.959 773.919,823.758 773.096,823.357L773.096,821.592C773.617,821.837 774.169,822.029 774.753,822.17C775.341,822.311 775.888,822.381 776.393,822.381C777.133,822.381 777.677,822.24 778.026,821.959C778.38,821.678 778.557,821.3 778.557,820.826C778.557,820.399 778.396,820.037 778.073,819.74C777.75,819.443 777.083,819.092 776.073,818.686C775.031,818.264 774.297,817.782 773.87,817.24C773.443,816.699 773.229,816.048 773.229,815.287C773.229,814.334 773.568,813.584 774.245,813.037C774.922,812.49 775.831,812.217 776.971,812.217C778.065,812.217 779.154,812.456 780.237,812.936L779.643,814.459C778.628,814.032 777.721,813.818 776.924,813.818C776.32,813.818 775.862,813.951 775.549,814.217C775.237,814.477 775.081,814.824 775.081,815.256C775.081,815.553 775.143,815.808 775.268,816.021C775.393,816.23 775.599,816.428 775.885,816.615C776.172,816.803 776.687,817.05 777.432,817.357C778.271,817.706 778.885,818.032 779.276,818.334C779.667,818.636 779.953,818.977 780.135,819.357C780.318,819.738 780.409,820.186 780.409,820.701ZM788.198,823.803L781.643,823.803L781.643,822.67L786.01,816.568L781.909,816.568L781.909,815.162L788.073,815.162L788.073,816.443L783.799,822.396L788.198,822.396L788.198,823.803ZM791.854,819.24L792.893,817.943L795.503,815.162L797.62,815.162L794.143,818.873L797.838,823.803L795.682,823.803L792.909,820.014L791.901,820.842L791.901,823.803L790.081,823.803L790.081,811.646L791.901,811.646L791.901,817.576L791.807,819.24L791.854,819.24ZM806.901,819.467C806.901,820.878 806.539,821.98 805.815,822.771C805.091,823.563 804.083,823.959 802.792,823.959C801.984,823.959 801.271,823.777 800.651,823.412C800.031,823.048 799.555,822.524 799.221,821.842C798.888,821.16 798.721,820.368 798.721,819.467C798.721,818.066 799.081,816.972 799.799,816.186C800.518,815.399 801.531,815.006 802.838,815.006C804.088,815.006 805.078,815.41 805.807,816.217C806.536,817.019 806.901,818.102 806.901,819.467ZM800.612,819.467C800.612,821.462 801.349,822.459 802.823,822.459C804.281,822.459 805.01,821.462 805.01,819.467C805.01,817.493 804.276,816.506 802.807,816.506C802.036,816.506 801.476,816.761 801.128,817.271C800.784,817.782 800.612,818.514 800.612,819.467ZM810.854,823.803L809.018,823.803L809.018,811.646L810.854,811.646L810.854,823.803ZM817.26,823.959C815.917,823.959 814.864,823.568 814.104,822.787C813.349,822.001 812.971,820.92 812.971,819.545C812.971,818.133 813.323,817.024 814.026,816.217C814.729,815.41 815.695,815.006 816.924,815.006C818.065,815.006 818.966,815.352 819.628,816.045C820.289,816.738 820.62,817.691 820.62,818.904L820.62,819.896L814.862,819.896C814.888,820.735 815.114,821.381 815.542,821.834C815.969,822.282 816.57,822.506 817.346,822.506C817.857,822.506 818.331,822.459 818.768,822.365C819.211,822.266 819.685,822.105 820.19,821.881L820.19,823.373C819.742,823.587 819.289,823.738 818.831,823.826C818.372,823.915 817.849,823.959 817.26,823.959ZM816.924,816.396C816.341,816.396 815.872,816.581 815.518,816.951C815.169,817.321 814.961,817.86 814.893,818.568L818.815,818.568C818.805,817.855 818.633,817.316 818.299,816.951C817.966,816.581 817.508,816.396 816.924,816.396ZM830.307,823.803L828.463,823.803L828.463,818.49C828.463,817.824 828.328,817.326 828.057,816.998C827.792,816.67 827.367,816.506 826.784,816.506C826.008,816.506 825.44,816.735 825.081,817.193C824.721,817.652 824.542,818.42 824.542,819.498L824.542,823.803L822.706,823.803L822.706,815.162L824.143,815.162L824.401,816.295L824.495,816.295C824.755,815.883 825.125,815.566 825.604,815.342C826.083,815.118 826.614,815.006 827.198,815.006C829.271,815.006 830.307,816.061 830.307,818.17L830.307,823.803ZM834.698,823.803L832.862,823.803L832.862,815.162L834.698,815.162L834.698,823.803ZM832.753,812.873C832.753,812.545 832.841,812.292 833.018,812.115C833.2,811.938 833.458,811.85 833.792,811.85C834.114,811.85 834.364,811.938 834.542,812.115C834.724,812.292 834.815,812.545 834.815,812.873C834.815,813.186 834.724,813.433 834.542,813.615C834.364,813.792 834.114,813.881 833.792,813.881C833.458,813.881 833.2,813.792 833.018,813.615C832.841,813.433 832.753,813.186 832.753,812.873ZM842.737,823.803L842.37,822.6L842.307,822.6C841.891,823.126 841.471,823.485 841.049,823.678C840.628,823.865 840.086,823.959 839.424,823.959C838.575,823.959 837.911,823.73 837.432,823.271C836.958,822.813 836.721,822.165 836.721,821.326C836.721,820.436 837.052,819.764 837.713,819.311C838.375,818.857 839.383,818.61 840.737,818.568L842.229,818.521L842.229,818.061C842.229,817.508 842.099,817.097 841.838,816.826C841.583,816.55 841.185,816.412 840.643,816.412C840.2,816.412 839.776,816.477 839.37,816.607C838.963,816.738 838.573,816.891 838.198,817.068L837.604,815.756C838.073,815.511 838.586,815.326 839.143,815.201C839.7,815.071 840.226,815.006 840.721,815.006C841.82,815.006 842.648,815.245 843.206,815.725C843.768,816.204 844.049,816.956 844.049,817.982L844.049,823.803L842.737,823.803ZM840.003,822.553C840.669,822.553 841.203,822.368 841.604,821.998C842.01,821.623 842.213,821.1 842.213,820.428L842.213,819.678L841.104,819.725C840.239,819.756 839.609,819.902 839.213,820.162C838.823,820.417 838.628,820.811 838.628,821.342C838.628,821.727 838.742,822.027 838.971,822.24C839.2,822.449 839.544,822.553 840.003,822.553Z" style="fill:white;fill-rule:nonzero;"/>
    </g>
</svg>
