<?xml version="1.0" encoding="UTF-8" standalone="no"?>
<!DOCTYPE svg PUBLIC "-//W3C//DTD SVG 1.1//EN" "http://www.w3.org/Graphics/SVG/1.1/DTD/svg11.dtd">
<svg width="100%" height="100%" viewBox="0 0 206 206" version="1.1" xmlns="http://www.w3.org/2000/svg" xmlns:xlink="http://www.w3.org/1999/xlink" xml:space="preserve" xmlns:serif="http://www.serif.com/" style="fill-rule:evenodd;clip-rule:evenodd;stroke-linejoin:round;stroke-miterlimit:1.41421;">
    <g transform="matrix(1,0,0,1,-1395.95,-879.647)">
        <g transform="matrix(1.00975,0,0,1.00975,-13.6061,-8.57377)">
            <rect x="1395.95" y="879.647" width="205.195" height="205.195" style="fill:rgb(149,205,255);"/>
        </g>
        <path d="M1568.09,1020.97L1562.64,1001.62C1562.46,1001.44 1562.28,1001.26 1562.1,1001.07C1561.91,1000.89 1561.82,1000.71 1561.82,1000.53C1558.37,989.625 1550.92,982.539 1539.47,979.267L1537.84,978.993C1535.11,978.449 1532.84,979.176 1531.02,981.176C1526.84,985.9 1519.85,988.263 1510.03,988.263C1500.4,988.263 1493.5,985.9 1489.32,981.176C1487.32,979.176 1485.05,978.449 1482.5,978.993L1480.87,979.54C1472.51,981.901 1466.15,986.627 1461.79,993.713L1445.16,993.713C1444.98,993.713 1444.89,993.622 1444.89,993.442C1444.71,993.26 1444.61,993.077 1444.61,992.895L1448.16,980.629C1449.61,976.086 1451.79,972.816 1454.7,970.818C1457.61,968.637 1462.15,966.819 1468.33,965.365C1468.69,965.185 1469.06,964.911 1469.42,964.547C1470.33,965.456 1471.33,966.183 1472.42,966.728C1472.78,966.91 1473.14,967.001 1473.51,967.001C1474.6,967.001 1475.42,966.456 1475.96,965.365C1476.87,963.911 1476.51,962.731 1474.87,961.822C1471.96,960.368 1469.51,957.643 1467.51,953.644C1465.51,949.647 1464.51,945.286 1464.51,940.56C1464.51,936.381 1465.97,932.838 1468.87,929.93C1471.78,927.023 1475.23,925.569 1479.23,925.569C1480.69,925.569 1482.23,925.842 1483.87,926.387C1482.23,929.839 1481.41,933.656 1481.41,937.835C1481.41,949.102 1484.32,958.823 1490.14,967.001C1496.13,975.179 1503.13,979.267 1511.12,979.267C1519.12,979.267 1526.02,975.179 1531.84,967.001C1537.84,958.641 1540.83,948.92 1540.83,937.835C1540.83,929.477 1537.93,922.479 1532.11,916.847C1526.48,911.032 1519.48,908.124 1511.12,908.124C1500.22,908.124 1491.95,912.576 1486.32,921.481C1484.32,920.754 1481.96,920.39 1479.23,920.39C1471.96,920.39 1466.33,923.571 1462.33,929.93C1461.97,929.566 1461.7,929.386 1461.51,929.386C1459.88,928.477 1457.79,928.023 1455.25,928.023C1451.61,927.841 1448.43,929.112 1445.71,931.838C1443.16,934.383 1441.89,937.472 1441.89,941.107C1441.89,945.104 1442.98,948.829 1445.16,952.281C1437.89,954.28 1433.17,958.278 1430.99,964.276L1429.08,971.907C1428.53,973.543 1428.71,974.814 1429.62,975.723C1430.35,976.995 1431.62,977.631 1433.44,977.631L1443.52,977.631C1443.16,978.358 1442.98,978.904 1442.98,979.267L1439.43,991.533C1438.89,993.168 1439.25,994.896 1440.53,996.712C1441.62,998.165 1443.16,998.892 1445.16,998.892L1459.06,998.892C1458.88,999.257 1458.52,1000.16 1457.97,1001.62L1452.52,1020.97C1451.97,1023.33 1452.43,1025.51 1453.88,1027.51C1455.15,1029.33 1457.06,1030.24 1459.61,1030.24L1561.01,1030.24C1563.55,1030.24 1565.46,1029.33 1566.73,1027.51C1568.18,1025.51 1568.64,1023.33 1568.09,1020.97ZM1489.32,926.658L1489.86,926.114C1489.86,925.933 1489.95,925.751 1490.14,925.569C1494.68,917.391 1501.67,913.303 1511.12,913.303C1516.57,913.303 1521.39,914.939 1525.57,918.209C1529.93,921.299 1532.93,925.387 1534.57,930.475C1529.48,931.384 1525.3,929.748 1522.03,925.569C1520.94,923.933 1519.76,923.751 1518.48,925.024C1518.12,925.205 1517.76,925.66 1517.39,926.387C1517.39,926.569 1517.3,926.658 1517.12,926.658C1515.3,930.475 1511.58,933.111 1505.94,934.565C1500.49,936.019 1494.22,936.019 1487.14,934.565C1487.32,932.02 1488.05,929.386 1489.32,926.658ZM1496.95,940.833C1508.03,940.833 1515.94,937.653 1520.66,931.293C1524.12,934.383 1528.02,935.927 1532.39,935.927C1533.11,935.927 1534.2,935.745 1535.66,935.381L1535.66,937.563C1535.66,947.193 1533.2,955.733 1528.3,963.184C1523.39,970.453 1517.67,974.088 1511.12,974.088C1504.94,974.088 1499.4,970.726 1494.5,964.002C1489.77,957.098 1487.23,949.011 1486.86,939.742C1489.77,940.471 1493.13,940.833 1496.95,940.833ZM1434.26,972.453L1436.16,965.91C1436.89,963.367 1438.07,961.548 1439.71,960.459C1441.53,959.188 1444.16,958.096 1447.61,957.187C1447.98,957.187 1448.34,957.007 1448.7,956.642C1448.88,956.825 1449.16,957.098 1449.52,957.46C1450.07,957.643 1450.43,957.825 1450.61,958.005C1450.98,958.187 1451.43,958.278 1451.97,958.278C1453.07,958.278 1453.79,957.825 1454.15,956.916C1455.06,955.28 1454.79,954.099 1453.34,953.373C1449.34,951.192 1447.34,947.102 1447.34,941.107C1447.34,938.744 1448.07,936.835 1449.52,935.381C1451.16,933.747 1453.07,932.929 1455.25,932.929C1456.88,932.929 1458.15,933.291 1459.06,934.018C1459.24,934.018 1459.52,934.109 1459.88,934.292L1460.15,934.292C1459.42,936.835 1459.06,938.926 1459.06,940.56C1459.06,948.193 1461.24,954.826 1465.6,960.459C1455.79,963.184 1449.25,967.183 1445.98,972.453L1434.26,972.453ZM1562.64,1024.24C1562.1,1024.79 1561.55,1025.06 1561.01,1025.06L1459.61,1025.06C1459.06,1025.06 1458.52,1024.79 1457.97,1024.24C1457.61,1023.52 1457.52,1022.88 1457.7,1022.33L1463.15,1003.25C1464.42,998.71 1466.78,994.804 1470.24,991.533C1473.69,988.08 1477.69,985.809 1482.23,984.719L1483.87,984.173C1484.41,984.173 1484.87,984.355 1485.23,984.719C1490.5,990.715 1498.77,993.713 1510.03,993.713C1521.48,993.713 1529.84,990.715 1535.11,984.719C1535.47,984.355 1535.93,984.173 1536.47,984.173L1538.11,984.719C1542.65,985.809 1546.65,988.08 1550.1,991.533C1553.55,994.804 1555.92,998.71 1557.19,1003.25L1559.64,1011.43C1559.64,1011.61 1559.73,1011.7 1559.92,1011.7L1560.19,1012.25L1563.19,1022.33C1563.19,1023.24 1563,1023.88 1562.64,1024.24Z" style="fill:white;fill-rule:nonzero;"/>
        <path d="M1437.71,1062.71L1429.54,1062.71L1429.54,1061.41L1435.29,1052.89L1429.69,1052.89L1429.69,1051.29L1437.55,1051.29L1437.55,1052.6L1431.77,1061.11L1437.71,1061.11L1437.71,1062.71ZM1443.31,1062.86C1441.97,1062.86 1440.91,1062.47 1440.15,1061.69C1439.4,1060.91 1439.02,1059.83 1439.02,1058.45C1439.02,1057.04 1439.37,1055.93 1440.07,1055.12C1440.78,1054.31 1441.74,1053.91 1442.97,1053.91C1444.11,1053.91 1445.01,1054.26 1445.68,1054.95C1446.34,1055.64 1446.67,1056.6 1446.67,1057.81L1446.67,1058.8L1440.91,1058.8C1440.94,1059.64 1441.16,1060.29 1441.59,1060.74C1442.02,1061.19 1442.62,1061.41 1443.4,1061.41C1443.91,1061.41 1444.38,1061.36 1444.82,1061.27C1445.26,1061.17 1445.73,1061.01 1446.24,1060.79L1446.24,1062.28C1445.79,1062.49 1445.34,1062.64 1444.88,1062.73C1444.42,1062.82 1443.9,1062.86 1443.31,1062.86ZM1442.97,1055.3C1442.39,1055.3 1441.92,1055.49 1441.57,1055.86C1441.22,1056.23 1441.01,1056.77 1440.94,1057.47L1444.86,1057.47C1444.85,1056.76 1444.68,1056.22 1444.35,1055.86C1444.01,1055.49 1443.56,1055.3 1442.97,1055.3ZM1454.56,1060.25C1454.56,1061.09 1454.25,1061.74 1453.64,1062.19C1453.02,1062.64 1452.14,1062.86 1451,1062.86C1449.85,1062.86 1448.92,1062.69 1448.22,1062.34L1448.22,1060.75C1449.24,1061.22 1450.18,1061.46 1451.06,1061.46C1452.19,1061.46 1452.75,1061.12 1452.75,1060.43C1452.75,1060.22 1452.69,1060.03 1452.57,1059.89C1452.44,1059.74 1452.24,1059.59 1451.95,1059.43C1451.66,1059.28 1451.26,1059.1 1450.75,1058.9C1449.76,1058.52 1449.09,1058.13 1448.73,1057.75C1448.38,1057.36 1448.21,1056.86 1448.21,1056.25C1448.21,1055.51 1448.5,1054.93 1449.1,1054.53C1449.7,1054.12 1450.51,1053.91 1451.54,1053.91C1452.55,1053.91 1453.51,1054.12 1454.42,1054.53L1453.82,1055.91C1452.89,1055.53 1452.11,1055.33 1451.47,1055.33C1450.5,1055.33 1450.02,1055.61 1450.02,1056.16C1450.02,1056.43 1450.15,1056.66 1450.4,1056.85C1450.65,1057.04 1451.2,1057.29 1452.05,1057.62C1452.76,1057.9 1453.28,1058.15 1453.61,1058.38C1453.93,1058.61 1454.17,1058.87 1454.32,1059.18C1454.48,1059.47 1454.56,1059.83 1454.56,1060.25ZM1460.93,1062.86C1459.84,1062.86 1458.99,1062.47 1458.39,1061.68L1458.28,1061.68C1458.35,1062.41 1458.39,1062.86 1458.39,1063.01L1458.39,1066.55L1456.55,1066.55L1456.55,1054.07L1458.04,1054.07C1458.08,1054.23 1458.16,1054.61 1458.29,1055.22L1458.39,1055.22C1458.96,1054.35 1459.82,1053.91 1460.97,1053.91C1462.04,1053.91 1462.88,1054.3 1463.48,1055.08C1464.09,1055.86 1464.39,1056.96 1464.39,1058.37C1464.39,1059.78 1464.08,1060.89 1463.47,1061.68C1462.86,1062.47 1462.01,1062.86 1460.93,1062.86ZM1460.49,1055.41C1459.76,1055.41 1459.23,1055.62 1458.89,1056.05C1458.55,1056.48 1458.39,1057.16 1458.39,1058.1L1458.39,1058.37C1458.39,1059.42 1458.55,1060.19 1458.89,1060.66C1459.22,1061.13 1459.76,1061.36 1460.52,1061.36C1461.16,1061.36 1461.65,1061.1 1461.99,1060.58C1462.33,1060.06 1462.5,1059.32 1462.5,1058.36C1462.5,1057.39 1462.33,1056.66 1461.99,1056.16C1461.65,1055.66 1461.15,1055.41 1460.49,1055.41ZM1474.18,1058.37C1474.18,1059.78 1473.82,1060.89 1473.1,1061.68C1472.37,1062.47 1471.37,1062.86 1470.07,1062.86C1469.27,1062.86 1468.55,1062.68 1467.93,1062.32C1467.31,1061.95 1466.84,1061.43 1466.5,1060.75C1466.17,1060.06 1466,1059.27 1466,1058.37C1466,1056.97 1466.36,1055.88 1467.08,1055.09C1467.8,1054.3 1468.81,1053.91 1470.12,1053.91C1471.37,1053.91 1472.36,1054.31 1473.09,1055.12C1473.82,1055.92 1474.18,1057.01 1474.18,1058.37ZM1467.9,1058.37C1467.9,1060.37 1468.63,1061.36 1470.11,1061.36C1471.56,1061.36 1472.29,1060.37 1472.29,1058.37C1472.29,1056.4 1471.56,1055.41 1470.09,1055.41C1469.32,1055.41 1468.76,1055.67 1468.41,1056.18C1468.07,1056.69 1467.9,1057.42 1467.9,1058.37ZM1478.24,1055.7L1479.04,1055.17L1479.77,1056.37L1478.24,1057.36L1478.24,1062.71L1476.4,1062.71L1476.4,1058.51L1475.68,1058.97L1474.97,1057.76L1476.4,1056.85L1476.4,1050.55L1478.24,1050.55L1478.24,1055.7ZM1479.71,1054.07L1481.71,1054.07L1483.47,1058.97C1483.73,1059.66 1483.91,1060.32 1484,1060.93L1484.06,1060.93C1484.11,1060.65 1484.19,1060.3 1484.32,1059.9C1484.44,1059.48 1485.1,1057.54 1486.3,1054.07L1488.29,1054.07L1484.59,1063.86C1483.92,1065.65 1482.8,1066.55 1481.23,1066.55C1480.82,1066.55 1480.43,1066.51 1480.04,1066.42L1480.04,1064.97C1480.32,1065.03 1480.63,1065.06 1480.99,1065.06C1481.87,1065.06 1482.5,1064.55 1482.86,1063.52L1483.18,1062.71L1479.71,1054.07ZM1498.14,1062.86C1497.04,1062.86 1496.19,1062.47 1495.59,1061.68L1495.48,1061.68C1495.55,1062.41 1495.59,1062.86 1495.59,1063.01L1495.59,1066.55L1493.75,1066.55L1493.75,1054.07L1495.24,1054.07C1495.28,1054.23 1495.37,1054.61 1495.5,1055.22L1495.59,1055.22C1496.16,1054.35 1497.02,1053.91 1498.17,1053.91C1499.25,1053.91 1500.09,1054.3 1500.68,1055.08C1501.29,1055.86 1501.59,1056.96 1501.59,1058.37C1501.59,1059.78 1501.28,1060.89 1500.67,1061.68C1500.06,1062.47 1499.22,1062.86 1498.14,1062.86ZM1497.69,1055.41C1496.96,1055.41 1496.43,1055.62 1496.09,1056.05C1495.76,1056.48 1495.59,1057.16 1495.59,1058.1L1495.59,1058.37C1495.59,1059.42 1495.76,1060.19 1496.09,1060.66C1496.42,1061.13 1496.97,1061.36 1497.72,1061.36C1498.36,1061.36 1498.85,1061.1 1499.19,1060.58C1499.54,1060.06 1499.71,1059.32 1499.71,1058.36C1499.71,1057.39 1499.54,1056.66 1499.19,1056.16C1498.85,1055.66 1498.35,1055.41 1497.69,1055.41ZM1508.11,1053.91C1508.48,1053.91 1508.78,1053.94 1509.02,1053.99L1508.84,1055.7C1508.58,1055.64 1508.31,1055.61 1508.03,1055.61C1507.29,1055.61 1506.7,1055.85 1506.24,1056.33C1505.79,1056.8 1505.56,1057.43 1505.56,1058.19L1505.56,1062.71L1503.72,1062.71L1503.72,1054.07L1505.16,1054.07L1505.4,1055.59L1505.5,1055.59C1505.78,1055.08 1506.16,1054.67 1506.61,1054.36C1507.08,1054.06 1507.57,1053.91 1508.11,1053.91ZM1518.29,1058.37C1518.29,1059.78 1517.93,1060.89 1517.21,1061.68C1516.48,1062.47 1515.48,1062.86 1514.18,1062.86C1513.38,1062.86 1512.66,1062.68 1512.04,1062.32C1511.42,1061.95 1510.95,1061.43 1510.61,1060.75C1510.28,1060.06 1510.11,1059.27 1510.11,1058.37C1510.11,1056.97 1510.47,1055.88 1511.19,1055.09C1511.91,1054.3 1512.92,1053.91 1514.23,1053.91C1515.48,1053.91 1516.47,1054.31 1517.2,1055.12C1517.93,1055.92 1518.29,1057.01 1518.29,1058.37ZM1512,1058.37C1512,1060.37 1512.74,1061.36 1514.22,1061.36C1515.67,1061.36 1516.4,1060.37 1516.4,1058.37C1516.4,1056.4 1515.67,1055.41 1514.2,1055.41C1513.43,1055.41 1512.87,1055.67 1512.52,1056.18C1512.18,1056.69 1512,1057.42 1512,1058.37ZM1519.53,1066.55C1518.98,1066.55 1518.52,1066.49 1518.15,1066.36L1518.15,1064.9C1518.51,1065 1518.87,1065.04 1519.24,1065.04C1520.02,1065.04 1520.41,1064.6 1520.41,1063.72L1520.41,1054.07L1522.25,1054.07L1522.25,1063.84C1522.25,1064.73 1522.01,1065.41 1521.54,1065.86C1521.08,1066.32 1520.41,1066.55 1519.53,1066.55ZM1520.3,1051.78C1520.3,1051.45 1520.39,1051.2 1520.57,1051.02C1520.75,1050.84 1521.01,1050.75 1521.34,1050.75C1521.66,1050.75 1521.91,1050.84 1522.09,1051.02C1522.27,1051.2 1522.36,1051.45 1522.36,1051.78C1522.36,1052.09 1522.27,1052.34 1522.09,1052.52C1521.91,1052.7 1521.66,1052.79 1521.34,1052.79C1521.01,1052.79 1520.75,1052.7 1520.57,1052.52C1520.39,1052.34 1520.3,1052.09 1520.3,1051.78ZM1528.65,1062.86C1527.31,1062.86 1526.26,1062.47 1525.5,1061.69C1524.74,1060.91 1524.36,1059.83 1524.36,1058.45C1524.36,1057.04 1524.72,1055.93 1525.42,1055.12C1526.12,1054.31 1527.09,1053.91 1528.32,1053.91C1529.46,1053.91 1530.36,1054.26 1531.02,1054.95C1531.68,1055.64 1532.01,1056.6 1532.01,1057.81L1532.01,1058.8L1526.25,1058.8C1526.28,1059.64 1526.51,1060.29 1526.93,1060.74C1527.36,1061.19 1527.96,1061.41 1528.74,1061.41C1529.25,1061.41 1529.72,1061.36 1530.16,1061.27C1530.6,1061.17 1531.08,1061.01 1531.58,1060.79L1531.58,1062.28C1531.13,1062.49 1530.68,1062.64 1530.22,1062.73C1529.76,1062.82 1529.24,1062.86 1528.65,1062.86ZM1528.32,1055.3C1527.73,1055.3 1527.26,1055.49 1526.91,1055.86C1526.56,1056.23 1526.35,1056.77 1526.29,1057.47L1530.21,1057.47C1530.2,1056.76 1530.03,1056.22 1529.69,1055.86C1529.36,1055.49 1528.9,1055.3 1528.32,1055.3ZM1535.87,1058.15L1536.91,1056.85L1539.52,1054.07L1541.64,1054.07L1538.16,1057.78L1541.86,1062.71L1539.7,1062.71L1536.93,1058.92L1535.92,1059.75L1535.92,1062.71L1534.1,1062.71L1534.1,1050.55L1535.92,1050.55L1535.92,1056.48L1535.82,1058.15L1535.87,1058.15ZM1546.47,1061.38C1546.92,1061.38 1547.37,1061.31 1547.82,1061.17L1547.82,1062.55C1547.61,1062.64 1547.35,1062.71 1547.03,1062.77C1546.71,1062.83 1546.38,1062.86 1546.04,1062.86C1544.3,1062.86 1543.43,1061.95 1543.43,1060.11L1543.43,1055.46L1542.25,1055.46L1542.25,1054.65L1543.51,1053.97L1544.14,1052.15L1545.27,1052.15L1545.27,1054.07L1547.73,1054.07L1547.73,1055.46L1545.27,1055.46L1545.27,1060.08C1545.27,1060.53 1545.38,1060.85 1545.6,1061.07C1545.82,1061.28 1546.11,1061.38 1546.47,1061.38ZM1557.22,1058.37C1557.22,1059.78 1556.85,1060.89 1556.13,1061.68C1555.41,1062.47 1554.4,1062.86 1553.11,1062.86C1552.3,1062.86 1551.59,1062.68 1550.97,1062.32C1550.35,1061.95 1549.87,1061.43 1549.54,1060.75C1549.2,1060.06 1549.04,1059.27 1549.04,1058.37C1549.04,1056.97 1549.4,1055.88 1550.11,1055.09C1550.83,1054.3 1551.85,1053.91 1553.15,1053.91C1554.4,1053.91 1555.39,1054.31 1556.12,1055.12C1556.85,1055.92 1557.22,1057.01 1557.22,1058.37ZM1550.93,1058.37C1550.93,1060.37 1551.66,1061.36 1553.14,1061.36C1554.6,1061.36 1555.32,1060.37 1555.32,1058.37C1555.32,1056.4 1554.59,1055.41 1553.12,1055.41C1552.35,1055.41 1551.79,1055.67 1551.44,1056.18C1551.1,1056.69 1550.93,1057.42 1550.93,1058.37ZM1566.42,1062.71L1565.3,1058.68C1565.17,1058.25 1564.92,1057.26 1564.57,1055.7L1564.5,1055.7C1564.19,1057.11 1563.96,1058.1 1563.78,1058.69L1562.63,1062.71L1560.6,1062.71L1558.18,1054.07L1560.05,1054.07L1561.15,1058.33C1561.4,1059.38 1561.58,1060.28 1561.68,1061.03L1561.73,1061.03C1561.78,1060.65 1561.86,1060.21 1561.97,1059.72C1562.07,1059.23 1562.17,1058.86 1562.25,1058.61L1563.56,1054.07L1565.57,1054.07L1566.85,1058.61C1566.93,1058.87 1567.02,1059.26 1567.14,1059.79C1567.26,1060.31 1567.33,1060.72 1567.35,1061.01L1567.41,1061.01C1567.49,1060.37 1567.67,1059.48 1567.96,1058.33L1569.07,1054.07L1570.92,1054.07L1568.48,1062.71L1566.42,1062.71ZM1576.18,1062.86C1574.84,1062.86 1573.79,1062.47 1573.03,1061.69C1572.27,1060.91 1571.9,1059.83 1571.9,1058.45C1571.9,1057.04 1572.25,1055.93 1572.95,1055.12C1573.65,1054.31 1574.62,1053.91 1575.85,1053.91C1576.99,1053.91 1577.89,1054.26 1578.55,1054.95C1579.21,1055.64 1579.54,1056.6 1579.54,1057.81L1579.54,1058.8L1573.79,1058.8C1573.81,1059.64 1574.04,1060.29 1574.47,1060.74C1574.89,1061.19 1575.49,1061.41 1576.27,1061.41C1576.78,1061.41 1577.25,1061.36 1577.69,1061.27C1578.13,1061.17 1578.61,1061.01 1579.11,1060.79L1579.11,1062.28C1578.67,1062.49 1578.21,1062.64 1577.75,1062.73C1577.3,1062.82 1576.77,1062.86 1576.18,1062.86ZM1575.85,1055.3C1575.26,1055.3 1574.8,1055.49 1574.44,1055.86C1574.09,1056.23 1573.88,1056.77 1573.82,1057.47L1577.74,1057.47C1577.73,1056.76 1577.56,1056.22 1577.22,1055.86C1576.89,1055.49 1576.43,1055.3 1575.85,1055.3Z" style="fill:white;fill-rule:nonzero;"/>
    </g>
</svg>
