<?xml version="1.0" encoding="UTF-8" standalone="no"?>
<!DOCTYPE svg PUBLIC "-//W3C//DTD SVG 1.1//EN" "http://www.w3.org/Graphics/SVG/1.1/DTD/svg11.dtd">
<svg width="100%" height="100%" viewBox="0 0 206 206" version="1.1" xmlns="http://www.w3.org/2000/svg" xmlns:xlink="http://www.w3.org/1999/xlink" xml:space="preserve" xmlns:serif="http://www.serif.com/" style="fill-rule:evenodd;clip-rule:evenodd;stroke-linejoin:round;stroke-miterlimit:1.41421;">
    <g transform="matrix(1,0,0,1,-660.928,-1127.47)">
        <g transform="matrix(1.00975,0,0,1.00392,-6.44195,-4.42317)">
            <rect x="660.928" y="1127.47" width="205.195" height="205.195" style="fill:rgb(2,117,219);"/>
        </g>
        <path d="M812.516,1173.71L803.1,1164.3C800.171,1161.09 796.405,1159.49 791.801,1159.49C787.337,1159.49 783.641,1161.09 780.711,1164.3L716.054,1228.75C713.683,1230.84 712.497,1233.7 712.497,1237.32L712.497,1260.97L712.288,1260.97L710.823,1262.43C709.707,1263.55 709.638,1264.67 710.614,1265.78C711.172,1266.34 711.8,1266.62 712.497,1266.62C712.776,1266.62 713.055,1266.55 713.334,1266.41C713.753,1266.13 714.032,1265.99 714.171,1265.99L715.636,1264.53C715.776,1264.39 715.845,1264.25 715.845,1264.11L739.49,1264.11C742.698,1264.11 745.488,1262.92 747.86,1260.55L812.516,1195.68C815.586,1192.75 817.12,1189.13 817.12,1184.8C817.12,1180.48 815.586,1176.78 812.516,1173.71ZM740.954,1259.3C740.816,1259.3 740.536,1259.37 740.118,1259.5C739.838,1259.5 739.63,1259.5 739.49,1259.5L717.1,1259.5L717.1,1237.32C717.1,1237.05 717.24,1236.49 717.519,1235.65L729.028,1235.65L729.028,1244.02C729.028,1245 729.376,1245.83 730.074,1246.53C730.772,1247.23 731.608,1247.58 732.584,1247.58L740.954,1247.58L740.954,1259.3ZM745.768,1256.16L745.768,1246.32C745.768,1245.35 745.418,1244.51 744.722,1243.81C744.024,1243.11 743.186,1242.77 742.21,1242.77L733.84,1242.77L733.84,1234.6C733.84,1232.23 732.654,1231.05 730.284,1231.05L720.448,1231.05L775.271,1176.43L800.38,1201.33L745.768,1256.16ZM809.168,1192.55L803.728,1197.99L778.619,1173.09L784.269,1167.65C786.361,1165.41 788.873,1164.3 791.801,1164.3C795.01,1164.3 797.591,1165.41 799.543,1167.65L808.96,1176.85C811.192,1179.08 812.308,1181.73 812.308,1184.8C812.308,1187.73 811.26,1190.31 809.168,1192.55Z" style="fill:white;fill-rule:nonzero;"/>
        <path d="M792.346,1310.54L784.174,1310.54L784.174,1309.24L789.932,1300.71L784.331,1300.71L784.331,1299.11L792.19,1299.11L792.19,1300.43L786.409,1308.93L792.346,1308.93L792.346,1310.54ZM799.581,1310.54L799.213,1309.33L799.151,1309.33C798.734,1309.86 798.315,1310.22 797.893,1310.41C797.471,1310.6 796.93,1310.69 796.268,1310.69C795.419,1310.69 794.755,1310.46 794.276,1310C793.802,1309.55 793.565,1308.9 793.565,1308.06C793.565,1307.17 793.896,1306.5 794.557,1306.04C795.219,1305.59 796.226,1305.34 797.581,1305.3L799.073,1305.25L799.073,1304.79C799.073,1304.24 798.943,1303.83 798.682,1303.56C798.427,1303.28 798.029,1303.14 797.487,1303.14C797.044,1303.14 796.62,1303.21 796.213,1303.34C795.807,1303.47 795.417,1303.62 795.042,1303.8L794.448,1302.49C794.917,1302.24 795.43,1302.06 795.987,1301.93C796.544,1301.8 797.07,1301.74 797.565,1301.74C798.664,1301.74 799.492,1301.98 800.049,1302.46C800.612,1302.94 800.893,1303.69 800.893,1304.71L800.893,1310.54L799.581,1310.54ZM796.846,1309.29C797.513,1309.29 798.047,1309.1 798.448,1308.73C798.854,1308.36 799.057,1307.83 799.057,1307.16L799.057,1306.41L797.948,1306.46C797.083,1306.49 796.453,1306.63 796.057,1306.89C795.667,1307.15 795.471,1307.54 795.471,1308.07C795.471,1308.46 795.586,1308.76 795.815,1308.97C796.044,1309.18 796.388,1309.29 796.846,1309.29ZM806.37,1310.69C805.292,1310.69 804.45,1310.3 803.846,1309.52C803.242,1308.74 802.94,1307.64 802.94,1306.23C802.94,1304.81 803.245,1303.71 803.854,1302.93C804.469,1302.13 805.318,1301.74 806.401,1301.74C807.536,1301.74 808.401,1302.16 808.995,1303L809.088,1303C809,1302.38 808.956,1301.89 808.956,1301.53L808.956,1298.38L810.799,1298.38L810.799,1310.54L809.362,1310.54L809.042,1309.4L808.956,1309.4C808.367,1310.26 807.505,1310.69 806.37,1310.69ZM806.862,1309.21C807.617,1309.21 808.167,1309 808.51,1308.57C808.854,1308.15 809.031,1307.46 809.042,1306.5L809.042,1306.25C809.042,1305.16 808.864,1304.38 808.51,1303.93C808.156,1303.47 807.601,1303.24 806.846,1303.24C806.2,1303.24 805.703,1303.5 805.354,1304.03C805.005,1304.55 804.831,1305.29 804.831,1306.26C804.831,1307.22 805,1307.95 805.338,1308.46C805.677,1308.96 806.185,1309.21 806.862,1309.21ZM818.831,1310.54L818.463,1309.33L818.401,1309.33C817.984,1309.86 817.565,1310.22 817.143,1310.41C816.721,1310.6 816.18,1310.69 815.518,1310.69C814.669,1310.69 814.005,1310.46 813.526,1310C813.052,1309.55 812.815,1308.9 812.815,1308.06C812.815,1307.17 813.146,1306.5 813.807,1306.04C814.469,1305.59 815.476,1305.34 816.831,1305.3L818.323,1305.25L818.323,1304.79C818.323,1304.24 818.193,1303.83 817.932,1303.56C817.677,1303.28 817.279,1303.14 816.737,1303.14C816.294,1303.14 815.87,1303.21 815.463,1303.34C815.057,1303.47 814.667,1303.62 814.292,1303.8L813.698,1302.49C814.167,1302.24 814.68,1302.06 815.237,1301.93C815.794,1301.8 816.32,1301.74 816.815,1301.74C817.914,1301.74 818.742,1301.98 819.299,1302.46C819.862,1302.94 820.143,1303.69 820.143,1304.71L820.143,1310.54L818.831,1310.54ZM816.096,1309.29C816.763,1309.29 817.297,1309.1 817.698,1308.73C818.104,1308.36 818.307,1307.83 818.307,1307.16L818.307,1306.41L817.198,1306.46C816.333,1306.49 815.703,1306.63 815.307,1306.89C814.917,1307.15 814.721,1307.54 814.721,1308.07C814.721,1308.46 814.836,1308.76 815.065,1308.97C815.294,1309.18 815.638,1309.29 816.096,1309.29ZM830.307,1310.54L828.463,1310.54L828.463,1305.22C828.463,1304.56 828.328,1304.06 828.057,1303.73C827.792,1303.4 827.367,1303.24 826.784,1303.24C826.008,1303.24 825.44,1303.47 825.081,1303.93C824.721,1304.38 824.542,1305.15 824.542,1306.23L824.542,1310.54L822.706,1310.54L822.706,1301.89L824.143,1301.89L824.401,1303.03L824.495,1303.03C824.755,1302.62 825.125,1302.3 825.604,1302.07C826.083,1301.85 826.614,1301.74 827.198,1301.74C829.271,1301.74 830.307,1302.79 830.307,1304.9L830.307,1310.54ZM834.698,1310.54L832.862,1310.54L832.862,1301.89L834.698,1301.89L834.698,1310.54ZM832.753,1299.61C832.753,1299.28 832.841,1299.02 833.018,1298.85C833.2,1298.67 833.458,1298.58 833.792,1298.58C834.114,1298.58 834.364,1298.67 834.542,1298.85C834.724,1299.02 834.815,1299.28 834.815,1299.61C834.815,1299.92 834.724,1300.17 834.542,1300.35C834.364,1300.52 834.114,1300.61 833.792,1300.61C833.458,1300.61 833.2,1300.52 833.018,1300.35C832.841,1300.17 832.753,1299.92 832.753,1299.61ZM842.737,1310.54L842.37,1309.33L842.307,1309.33C841.891,1309.86 841.471,1310.22 841.049,1310.41C840.628,1310.6 840.086,1310.69 839.424,1310.69C838.575,1310.69 837.911,1310.46 837.432,1310C836.958,1309.55 836.721,1308.9 836.721,1308.06C836.721,1307.17 837.052,1306.5 837.713,1306.04C838.375,1305.59 839.383,1305.34 840.737,1305.3L842.229,1305.25L842.229,1304.79C842.229,1304.24 842.099,1303.83 841.838,1303.56C841.583,1303.28 841.185,1303.14 840.643,1303.14C840.2,1303.14 839.776,1303.21 839.37,1303.34C838.963,1303.47 838.573,1303.62 838.198,1303.8L837.604,1302.49C838.073,1302.24 838.586,1302.06 839.143,1301.93C839.7,1301.8 840.226,1301.74 840.721,1301.74C841.82,1301.74 842.648,1301.98 843.206,1302.46C843.768,1302.94 844.049,1303.69 844.049,1304.71L844.049,1310.54L842.737,1310.54ZM840.003,1309.29C840.669,1309.29 841.203,1309.1 841.604,1308.73C842.01,1308.36 842.213,1307.83 842.213,1307.16L842.213,1306.41L841.104,1306.46C840.239,1306.49 839.609,1306.63 839.213,1306.89C838.823,1307.15 838.628,1307.54 838.628,1308.07C838.628,1308.46 838.742,1308.76 838.971,1308.97C839.2,1309.18 839.544,1309.29 840.003,1309.29Z" style="fill:white;fill-rule:nonzero;"/>
    </g>
</svg>
