<?xml version="1.0" encoding="UTF-8" standalone="no"?>
<!DOCTYPE svg PUBLIC "-//W3C//DTD SVG 1.1//EN" "http://www.w3.org/Graphics/SVG/1.1/DTD/svg11.dtd">
<svg width="100%" height="100%" viewBox="0 0 206 206" version="1.1" xmlns="http://www.w3.org/2000/svg" xmlns:xlink="http://www.w3.org/1999/xlink" xml:space="preserve" xmlns:serif="http://www.serif.com/" style="fill-rule:evenodd;clip-rule:evenodd;stroke-linejoin:round;stroke-miterlimit:1.41421;">
    <g transform="matrix(1.01949,0,0,1.01949,-434.196,-653.232)">
        <rect x="425.894" y="640.742" width="205.195" height="205.195" style="fill:rgb(0,48,89);"/>
        <path d="M494.351,818.076C494.351,819.936 493.885,821.381 492.953,822.412C492.026,823.443 490.711,823.959 489.007,823.959C487.283,823.959 485.958,823.449 485.031,822.428C484.109,821.402 483.648,819.946 483.648,818.061C483.648,816.175 484.112,814.727 485.039,813.717C485.971,812.706 487.299,812.201 489.023,812.201C490.721,812.201 492.033,812.714 492.961,813.74C493.888,814.766 494.351,816.212 494.351,818.076ZM485.632,818.076C485.632,819.482 485.916,820.55 486.484,821.279C487.052,822.003 487.893,822.365 489.007,822.365C490.117,822.365 490.953,822.006 491.515,821.287C492.083,820.568 492.367,819.498 492.367,818.076C492.367,816.675 492.086,815.613 491.523,814.889C490.966,814.165 490.132,813.803 489.023,813.803C487.903,813.803 487.057,814.165 486.484,814.889C485.916,815.613 485.632,816.675 485.632,818.076ZM500.093,823.959C498.786,823.959 497.791,823.579 497.109,822.818C496.432,822.053 496.093,820.956 496.093,819.529C496.093,818.076 496.448,816.959 497.156,816.178C497.869,815.396 498.898,815.006 500.242,815.006C501.153,815.006 501.974,815.175 502.703,815.514L502.148,816.99C501.372,816.688 500.731,816.537 500.226,816.537C498.731,816.537 497.984,817.529 497.984,819.514C497.984,820.482 498.169,821.212 498.539,821.701C498.914,822.186 499.461,822.428 500.179,822.428C500.997,822.428 501.77,822.225 502.5,821.818L502.5,823.42C502.171,823.613 501.82,823.751 501.445,823.834C501.075,823.917 500.625,823.959 500.093,823.959ZM508.304,823.959C506.961,823.959 505.908,823.568 505.148,822.787C504.393,822.001 504.015,820.92 504.015,819.545C504.015,818.133 504.367,817.024 505.07,816.217C505.773,815.41 506.739,815.006 507.968,815.006C509.109,815.006 510.01,815.352 510.671,816.045C511.333,816.738 511.664,817.691 511.664,818.904L511.664,819.896L505.906,819.896C505.932,820.735 506.158,821.381 506.586,821.834C507.013,822.282 507.614,822.506 508.39,822.506C508.901,822.506 509.375,822.459 509.812,822.365C510.255,822.266 510.729,822.105 511.234,821.881L511.234,823.373C510.786,823.587 510.333,823.738 509.875,823.826C509.416,823.915 508.893,823.959 508.304,823.959ZM507.968,816.396C507.385,816.396 506.916,816.581 506.562,816.951C506.213,817.321 506.005,817.86 505.937,818.568L509.859,818.568C509.849,817.855 509.677,817.316 509.343,816.951C509.01,816.581 508.552,816.396 507.968,816.396ZM521.351,823.803L519.507,823.803L519.507,818.49C519.507,817.824 519.372,817.326 519.101,816.998C518.836,816.67 518.411,816.506 517.828,816.506C517.052,816.506 516.484,816.735 516.125,817.193C515.765,817.652 515.586,818.42 515.586,819.498L515.586,823.803L513.75,823.803L513.75,815.162L515.187,815.162L515.445,816.295L515.539,816.295C515.799,815.883 516.169,815.566 516.648,815.342C517.127,815.118 517.658,815.006 518.242,815.006C520.315,815.006 521.351,816.061 521.351,818.17L521.351,823.803ZM522.593,815.162L524.593,815.162L526.351,820.061C526.617,820.758 526.794,821.415 526.882,822.029L526.945,822.029C526.992,821.743 527.078,821.396 527.203,820.99C527.328,820.579 527.989,818.636 529.187,815.162L531.171,815.162L527.476,824.951C526.804,826.748 525.684,827.646 524.117,827.646C523.711,827.646 523.315,827.602 522.929,827.514L522.929,826.061C523.205,826.123 523.52,826.154 523.875,826.154C524.76,826.154 525.382,825.641 525.742,824.615L526.062,823.803L522.593,815.162ZM544.304,819.467C544.304,820.878 543.942,821.98 543.218,822.771C542.494,823.563 541.487,823.959 540.195,823.959C539.388,823.959 538.674,823.777 538.054,823.412C537.434,823.048 536.958,822.524 536.625,821.842C536.291,821.16 536.125,820.368 536.125,819.467C536.125,818.066 536.484,816.972 537.203,816.186C537.921,815.399 538.934,815.006 540.242,815.006C541.492,815.006 542.481,815.41 543.211,816.217C543.94,817.019 544.304,818.102 544.304,819.467ZM538.015,819.467C538.015,821.462 538.752,822.459 540.226,822.459C541.684,822.459 542.414,821.462 542.414,819.467C542.414,817.493 541.679,816.506 540.211,816.506C539.44,816.506 538.88,816.761 538.531,817.271C538.187,817.782 538.015,818.514 538.015,819.467ZM548.195,819.24L549.234,817.943L551.843,815.162L553.961,815.162L550.484,818.873L554.179,823.803L552.023,823.803L549.25,820.014L548.242,820.842L548.242,823.803L546.421,823.803L546.421,811.646L548.242,811.646L548.242,817.576L548.148,819.24L548.195,819.24ZM559.961,815.006C560.33,815.006 560.635,815.032 560.875,815.084L560.695,816.795C560.434,816.732 560.164,816.701 559.882,816.701C559.148,816.701 558.552,816.941 558.093,817.42C557.64,817.899 557.414,818.521 557.414,819.287L557.414,823.803L555.578,823.803L555.578,815.162L557.015,815.162L557.257,816.686L557.351,816.686C557.638,816.17 558.01,815.761 558.468,815.459C558.932,815.157 559.429,815.006 559.961,815.006ZM566.257,823.959C564.914,823.959 563.862,823.568 563.101,822.787C562.346,822.001 561.968,820.92 561.968,819.545C561.968,818.133 562.32,817.024 563.023,816.217C563.726,815.41 564.692,815.006 565.921,815.006C567.062,815.006 567.963,815.352 568.625,816.045C569.286,816.738 569.617,817.691 569.617,818.904L569.617,819.896L563.859,819.896C563.885,820.735 564.112,821.381 564.539,821.834C564.966,822.282 565.567,822.506 566.343,822.506C566.854,822.506 567.328,822.459 567.765,822.365C568.208,822.266 568.682,822.105 569.187,821.881L569.187,823.373C568.739,823.587 568.286,823.738 567.828,823.826C567.369,823.915 566.846,823.959 566.257,823.959ZM565.921,816.396C565.338,816.396 564.869,816.581 564.515,816.951C564.166,817.321 563.958,817.86 563.89,818.568L567.812,818.568C567.802,817.855 567.63,817.316 567.296,816.951C566.963,816.581 566.505,816.396 565.921,816.396ZM577.507,821.342C577.507,822.186 577.2,822.834 576.586,823.287C575.971,823.735 575.091,823.959 573.945,823.959C572.794,823.959 571.869,823.785 571.171,823.436L571.171,821.85C572.187,822.318 573.132,822.553 574.007,822.553C575.138,822.553 575.703,822.212 575.703,821.529C575.703,821.311 575.64,821.128 575.515,820.982C575.39,820.837 575.184,820.686 574.898,820.529C574.612,820.373 574.213,820.196 573.703,819.998C572.708,819.613 572.033,819.227 571.679,818.842C571.33,818.456 571.156,817.956 571.156,817.342C571.156,816.602 571.453,816.029 572.046,815.623C572.645,815.212 573.458,815.006 574.484,815.006C575.5,815.006 576.461,815.212 577.367,815.623L576.773,817.006C575.841,816.62 575.057,816.428 574.421,816.428C573.453,816.428 572.968,816.704 572.968,817.256C572.968,817.527 573.093,817.756 573.343,817.943C573.599,818.131 574.151,818.389 575,818.717C575.713,818.993 576.231,819.245 576.554,819.475C576.877,819.704 577.117,819.969 577.273,820.271C577.429,820.568 577.507,820.925 577.507,821.342ZM587.164,819.467C587.164,820.878 586.802,821.98 586.078,822.771C585.354,823.563 584.346,823.959 583.054,823.959C582.247,823.959 581.533,823.777 580.914,823.412C580.294,823.048 579.817,822.524 579.484,821.842C579.151,821.16 578.984,820.368 578.984,819.467C578.984,818.066 579.343,816.972 580.062,816.186C580.781,815.399 581.794,815.006 583.101,815.006C584.351,815.006 585.341,815.41 586.07,816.217C586.799,817.019 587.164,818.102 587.164,819.467ZM580.875,819.467C580.875,821.462 581.612,822.459 583.086,822.459C584.544,822.459 585.273,821.462 585.273,819.467C585.273,817.493 584.539,816.506 583.07,816.506C582.299,816.506 581.739,816.761 581.39,817.271C581.046,817.782 580.875,818.514 580.875,819.467ZM596.367,823.803L595.25,819.771C595.114,819.344 594.869,818.352 594.515,816.795L594.445,816.795C594.143,818.201 593.903,819.199 593.726,819.787L592.578,823.803L590.546,823.803L588.125,815.162L590,815.162L591.101,819.42C591.351,820.472 591.528,821.373 591.632,822.123L591.679,822.123C591.731,821.743 591.809,821.308 591.914,820.818C592.023,820.324 592.117,819.954 592.195,819.709L593.507,815.162L595.523,815.162L596.796,819.709C596.875,819.964 596.971,820.355 597.086,820.881C597.205,821.407 597.276,821.816 597.296,822.107L597.359,822.107C597.437,821.467 597.619,820.571 597.906,819.42L599.023,815.162L600.867,815.162L598.429,823.803L596.367,823.803ZM606.132,823.959C604.789,823.959 603.737,823.568 602.976,822.787C602.221,822.001 601.843,820.92 601.843,819.545C601.843,818.133 602.195,817.024 602.898,816.217C603.601,815.41 604.567,815.006 605.796,815.006C606.937,815.006 607.838,815.352 608.5,816.045C609.161,816.738 609.492,817.691 609.492,818.904L609.492,819.896L603.734,819.896C603.76,820.735 603.987,821.381 604.414,821.834C604.841,822.282 605.442,822.506 606.218,822.506C606.729,822.506 607.203,822.459 607.64,822.365C608.083,822.266 608.557,822.105 609.062,821.881L609.062,823.373C608.614,823.587 608.161,823.738 607.703,823.826C607.244,823.915 606.721,823.959 606.132,823.959ZM605.796,816.396C605.213,816.396 604.744,816.581 604.39,816.951C604.041,817.321 603.833,817.86 603.765,818.568L607.687,818.568C607.677,817.855 607.505,817.316 607.171,816.951C606.838,816.581 606.38,816.396 605.796,816.396Z" style="fill:white;fill-rule:nonzero;"/>
        <path d="M528.491,693.431C521.065,693.431 514.77,696.013 509.605,701.179C504.44,706.344 501.857,712.558 501.857,719.822C501.857,727.086 504.44,733.381 509.605,738.708C514.77,743.874 521.065,746.456 528.491,746.456C535.755,746.456 541.969,743.874 547.135,738.708C552.3,733.381 554.883,727.086 554.883,719.822C554.883,712.558 552.3,706.344 547.135,701.179C541.969,696.013 535.755,693.431 528.491,693.431ZM543.987,735.561C539.79,739.757 534.624,741.856 528.491,741.856C522.356,741.856 517.112,739.757 512.752,735.561C508.395,731.201 506.215,725.955 506.215,719.822C506.215,713.689 508.395,708.524 512.752,704.326C517.112,699.968 522.356,697.788 528.491,697.788C534.624,697.788 539.79,699.968 543.987,704.326C548.345,708.524 550.525,713.689 550.525,719.822C550.525,725.955 548.345,731.201 543.987,735.561ZM521.227,704.326C520.581,704.65 519.774,705.134 518.806,705.779C517.515,706.747 517.353,707.797 518.322,708.927C518.482,709.572 519.049,709.894 520.017,709.894C520.662,709.894 521.065,709.815 521.227,709.653C521.873,709.168 522.518,708.846 523.164,708.684C524.455,708.038 524.779,707.071 524.133,705.779C523.648,704.164 522.68,703.68 521.227,704.326ZM515.9,719.822C515.9,717.401 516.466,715.302 517.596,713.527C518.241,712.074 517.918,711.106 516.626,710.621C515.175,709.975 514.206,710.299 513.722,711.59C512.269,714.173 511.542,716.997 511.542,720.065C511.542,724.585 512.833,728.216 515.416,730.96C515.9,731.444 516.466,731.687 517.112,731.687C517.434,731.687 517.918,731.525 518.563,731.201C519.695,730.396 519.774,729.345 518.806,728.054C516.869,725.633 515.9,722.889 515.9,719.822ZM587.328,711.59C567.634,690.605 548.023,680.114 528.491,680.114C508.959,680.114 489.348,690.605 469.654,711.59C467.555,713.849 466.507,716.594 466.507,719.822C466.507,723.05 467.555,725.795 469.654,728.054C489.348,749.039 508.959,759.53 528.491,759.53C548.023,759.53 567.634,749.039 587.328,728.054C589.427,725.795 590.476,723.05 590.476,719.822C590.476,716.594 589.427,713.849 587.328,711.59ZM583.938,725.149C576.352,733.381 568.442,739.919 560.21,744.76C551.978,749.604 545.601,752.589 541.081,753.721C536.561,754.688 532.365,755.172 528.491,755.172C510.251,755.172 491.769,745.165 473.045,725.149C469.978,721.759 469.978,718.207 473.045,714.495C480.631,706.263 488.541,699.725 496.772,694.884C505.004,690.04 511.38,687.136 515.9,686.166C520.419,685.037 524.617,684.472 528.491,684.472C532.365,684.472 536.561,685.037 541.081,686.166C545.601,687.136 551.978,690.121 560.21,695.125C568.442,699.968 576.352,706.506 583.938,714.738C585.229,716.191 585.875,717.966 585.875,720.065C585.875,722.002 585.229,723.696 583.938,725.149Z" style="fill:white;fill-rule:nonzero;"/>
    </g>
</svg>
